<svg xmlns="http://www.w3.org/2000/svg" viewBox="0 0 100 100" width="100" height="100">
  <defs>
    <radialGradient id="g" cx="50%" cy="50%" r="55%">
      <stop offset="0%" stop-color="#eda085"/>
      <stop offset="100%" stop-color="#d97757"/>
    </radialGradient>
  </defs>
  <rect x="0" y="0" width="100" height="100" rx="22" fill="#17191f"/>
  <!-- Claude-style sunburst: rounded rays radiating from centre, alternating length -->
  <g fill="url(#g)">
    <rect x="47.6" y="8"  width="4.8" height="37" rx="2.4" transform="rotate(0 50 50)"/>
    <rect x="48.0" y="18" width="4.0" height="27" rx="2.0" transform="rotate(30 50 50)"/>
    <rect x="47.6" y="8"  width="4.8" height="37" rx="2.4" transform="rotate(60 50 50)"/>
    <rect x="48.0" y="18" width="4.0" height="27" rx="2.0" transform="rotate(90 50 50)"/>
    <rect x="47.6" y="8"  width="4.8" height="37" rx="2.4" transform="rotate(120 50 50)"/>
    <rect x="48.0" y="18" width="4.0" height="27" rx="2.0" transform="rotate(150 50 50)"/>
    <rect x="47.6" y="8"  width="4.8" height="37" rx="2.4" transform="rotate(180 50 50)"/>
    <rect x="48.0" y="18" width="4.0" height="27" rx="2.0" transform="rotate(210 50 50)"/>
    <rect x="47.6" y="8"  width="4.8" height="37" rx="2.4" transform="rotate(240 50 50)"/>
    <rect x="48.0" y="18" width="4.0" height="27" rx="2.0" transform="rotate(270 50 50)"/>
    <rect x="47.6" y="8"  width="4.8" height="37" rx="2.4" transform="rotate(300 50 50)"/>
    <rect x="48.0" y="18" width="4.0" height="27" rx="2.0" transform="rotate(330 50 50)"/>
  </g>
</svg>
